<svg xmlns="http://www.w3.org/2000/svg" viewBox="0 0 128 128"><defs><linearGradient id="b" x1="302.74" x2="311.27" y1="377.95" y2="390.78" gradientTransform="matrix(4.7173 0 0 4.4512 -1427.9 -1668.4)" gradientUnits="userSpaceOnUse"><stop offset="0" style="stop-color:#fff"/><stop offset="1" style="stop-color:#fff;stop-opacity:0"/></linearGradient><linearGradient id="a" x1="314.57" x2="332.02" y1="369.98" y2="387.44" gradientUnits="userSpaceOnUse"><stop offset="0" style="stop-color:#e12b1c"/><stop offset="1" style="stop-color:#980b00"/></linearGradient></defs><path d="M339.54 378.06a13.967 13.967 0 1 1-27.933 0 13.967 13.967 0 1 1 27.933 0z" style="fill:#b4281c" transform="translate(-1427.9 -1668.4) scale(4.5823)"/><path d="M339.54 378.06a13.967 13.967 0 1 1-27.933 0 13.967 13.967 0 1 1 27.933 0z" style="stroke:#fff;stroke-width:.32492;fill:url(#a)" transform="translate(-1298.1 -1517.7) scale(4.1839)"/><path d="M63.961 5.597c-32.256 0-58.425 26.17-58.425 58.425 0 15.498 6.325 29.347 16.181 39.81 5.12-42.296 40.818-75.18 84.487-75.18 1.177 0 2.27.24 3.437.287C98.956 15.042 82.835 5.598 63.96 5.598z" style="fill:url(#b)"/><path d="M26.622 72.599c0 .762.67 1.289 1.432 1.289h71.885c.762 0 1.432-.527 1.432-1.289V55.415c0-.762-.67-1.432-1.432-1.432H28.054c-.762 0-1.432.67-1.432 1.432v17.184z" style="fill:#fff"/></svg>